<?xml version="1.0" encoding="UTF-8"?>
<svg id="Layer_1" data-name="Layer 1" xmlns="http://www.w3.org/2000/svg" viewBox="0 0 1033.07 1033.07">
  <defs>
    <style>
      .cls-1 {
        fill: #3586aa;
      }

      .cls-2 {
        fill: #7fbde7;
      }
    </style>
  </defs>
  <g>
    <path class="cls-2" d="M516.54,1013.57c-67.09,0-132.19-13.14-193.47-39.07-59.19-25.04-112.34-60.87-157.98-106.51s-81.48-98.79-106.51-157.98c-25.92-61.29-39.07-126.38-39.07-193.47s13.14-132.19,39.07-193.47c25.03-59.19,60.87-112.34,106.51-157.98s98.79-81.48,157.98-106.51c61.29-25.92,126.38-39.07,193.47-39.07s132.19,13.14,193.47,39.07c59.19,25.03,112.34,60.87,157.98,106.51s81.48,98.79,106.51,157.98c25.92,61.29,39.07,126.38,39.07,193.47s-13.14,132.19-39.07,193.47c-25.04,59.19-60.87,112.34-106.51,157.98s-98.79,81.48-157.98,106.51c-61.29,25.92-126.38,39.07-193.47,39.07Z"/>
    <path class="cls-1" d="M516.54,39c263.74,0,477.54,213.8,477.54,477.54s-213.8,477.54-477.54,477.54S39,780.27,39,516.54,252.8,39,516.54,39M516.54,0c-69.71,0-137.36,13.66-201.07,40.61-61.51,26.02-116.75,63.26-164.17,110.68s-84.66,102.66-110.68,164.17C13.66,379.17,0,446.82,0,516.54s13.66,137.36,40.61,201.07c26.02,61.51,63.26,116.75,110.68,164.18,47.43,47.43,102.66,84.66,164.17,110.68,63.71,26.95,131.36,40.61,201.07,40.61s137.36-13.66,201.07-40.61c61.51-26.02,116.75-63.26,164.18-110.68,47.43-47.43,84.66-102.66,110.68-164.18,26.95-63.71,40.61-131.36,40.61-201.07s-13.66-137.36-40.61-201.07c-26.02-61.51-63.26-116.75-110.68-164.17-47.43-47.43-102.66-84.66-164.18-110.68C653.9,13.66,586.25,0,516.54,0h0Z"/>
  </g>
  <polygon class="cls-1" points="750.95 551.32 372.45 332.79 372.45 769.85 750.95 551.32"/>
</svg>